Coordinates
version=1
nRows=6
nColumns=34
inDegrees=yes

Units are S.I. units (second, meters, Newtons, ...)
If the header above contains a line with 'inDegrees', this indicates whether rotational values are in degrees (yes) or radians (no).

endheader
time	pelvis_tilt	pelvis_list	pelvis_rotation	pelvis_tx	pelvis_ty	pelvis_tz	hip_flexion_r	hip_adduction_r	hip_rotation_r	knee_angle_r	ankle_angle_r	subtalar_angle_r	mtp_angle_r	hip_flexion_l	hip_adduction_l	hip_rotation_l	knee_angle_l	ankle_angle_l	subtalar_angle_l	mtp_angle_l	lumbar_extension	lumbar_bending	lumbar_rotation	arm_flex_r	arm_add_r	arm_rot_r	elbow_flex_r	pro_sup_r	arm_flex_l	arm_add_l	arm_rot_l	elbow_flex_l	pro_sup_l
      0.00000000	      3.56556387	     -6.33004071	    154.64087835	      0.42369013	      0.84490952	     -0.09097662	     22.64652238	     -5.81463821	     -4.91759972	     91.69546017	     -2.83511907	    -13.34511492	      0.00000000	     21.04137532	     -8.08094620	     -2.43558136	     96.16788759	     -3.17094043	    -18.52480208	      0.00000000	      2.34902513	     -2.48178112	      1.41261014	      7.44692647	    -37.37110594	    -40.64512869	    150.00035077	     87.70802920	     22.72181969	    -41.26188993	    -30.73797306	    132.64980942	     87.26777364
      0.01666670	      5.23340950	     -4.46691419	    154.59693342	      0.42402689	      0.84900553	     -0.09028658	     26.35879164	     -3.61689964	     -4.59590869	     97.64978870	     -8.40333759	    -16.77619663	      0.00000000	     24.89060178	     -9.98510489	     -1.87702284	    100.17824486	     -8.17053585	    -23.81948642	      0.00000000	      2.62701133	     -0.26606821	      1.09222604	      6.77392860	    -37.98644490	    -43.43764483	    150.00035077	     90.79828647	     21.60024416	    -43.60001570	    -32.10200878	    134.05201289	     90.53615007
      0.03333330	      5.53770148	     -4.20470360	    154.35324789	      0.42491971	      0.85018572	     -0.09068209	     27.02338949	     -2.45315055	     -4.13000016	     97.53247454	     -9.30938499	    -17.52447300	      0.00000000	     25.68947727	     -9.84391155	     -2.01707479	    100.24833022	     -8.85306828	    -22.59191366	      0.00000000	      3.19029962	     -0.45892752	      2.18112509	      6.12587145	    -37.88278523	    -45.06266408	    148.58435522	    100.81909054	     22.12097930	    -43.70762353	    -31.44206086	    134.12223968	    102.21722160
      0.05000000	      6.13005777	     -4.39361912	    154.32195350	      0.42495523	      0.85040406	     -0.09076427	     28.35502474	     -1.95717861	     -4.36102319	     96.81960441	    -11.12097947	    -19.20954896	      0.00000000	     26.15402802	     -9.33290755	     -1.83027249	     99.31591630	     -9.90643323	    -24.93498600	      0.00000000	      3.95702356	     -0.67249185	      2.31361881	      6.15175108	    -37.99954824	    -45.31774358	    147.64375242	    100.71504341	     21.86365151	    -44.35500008	    -31.61494770	    134.59083215	    102.24389715
      0.06666670	      7.20051963	     -4.54317030	    154.53443557	      0.42471717	      0.85043043	     -0.09037347	     29.45667806	     -1.39218782	     -4.95541092	     96.07027220	    -12.07001187	    -19.84460014	      0.00000000	     27.26748741	     -9.13175470	     -1.47697543	     98.92315813	     -9.85973093	    -25.35290205	      0.00000000	      5.21340136	     -0.33830367	      2.14627694	      5.75542706	    -37.60816099	    -45.38527924	    147.19864396	    100.48919608	     21.33019590	    -44.17499760	    -31.96115815	    134.46713655	    102.22926514
      0.08333330	      7.75800053	     -4.79036391	    154.69838381	      0.42473276	      0.85052591	     -0.08997258	     30.09282837	     -1.30331608	     -5.27263992	     96.12148403	    -12.96231988	    -20.51746605	      0.00000000	     28.11384729	     -8.74755146	     -1.26174895	     98.72771840	    -10.26096051	    -25.95339589	      0.00000000	      5.81272592	     -0.25122834	      1.96532342	      5.63170019	    -37.13858551	    -45.50244760	    147.16703158	    100.24101972	     20.88184617	    -43.96099780	    -32.09227910	    134.37092973	    102.19480162
